<mxfile host="65bd71144e">
    <diagram id="FtOyVvMvATsT74txpiN0" name="Page-1">
        <mxGraphModel dx="879" dy="409" grid="1" gridSize="10" guides="1" tooltips="1" connect="1" arrows="1" fold="1" page="1" pageScale="1" pageWidth="827" pageHeight="1169" math="0" shadow="0">
            <root>
                <mxCell id="0"/>
                <mxCell id="1" parent="0"/>
                <mxCell id="39" value="QUALITY CONTROL" style="rounded=1;whiteSpace=wrap;html=1;glass=0;shadow=0;strokeWidth=2;horizontal=0;verticalAlign=top;spacingTop=8;fontSize=16;spacing=16;spacingLeft=0;spacingBottom=8;align=center;fontStyle=1;fillColor=none;" parent="1" vertex="1">
                    <mxGeometry x="40" y="200" width="239.5" height="520" as="geometry"/>
                </mxCell>
                <mxCell id="131" style="edgeStyle=none;rounded=0;sketch=0;html=1;strokeColor=#FF99CC;fontSize=12;fontColor=default;entryX=0;entryY=0.5;entryDx=0;entryDy=0;" parent="1" source="115" target="168" edge="1">
                    <mxGeometry relative="1" as="geometry">
                        <mxPoint x="260" y="560" as="targetPoint"/>
                        <Array as="points">
                            <mxPoint x="300" y="560"/>
                            <mxPoint x="300" y="300"/>
                        </Array>
                    </mxGeometry>
                </mxCell>
                <mxCell id="133" value="KRAKEN&lt;br&gt;TRIMMED" style="rounded=1;whiteSpace=wrap;html=1;glass=0;shadow=0;strokeWidth=2;horizontal=0;verticalAlign=top;spacingTop=8;fontSize=16;spacing=16;spacingLeft=0;spacingBottom=8;align=right;fontStyle=1;fillColor=none;" parent="1" vertex="1">
                    <mxGeometry x="320.01" y="407" width="240" height="313" as="geometry"/>
                </mxCell>
                <mxCell id="15" value="gamma" style="whiteSpace=wrap;html=1;" parent="1" vertex="1">
                    <mxGeometry x="12.75" y="980" width="80" height="80" as="geometry"/>
                </mxCell>
                <mxCell id="138" style="edgeStyle=none;html=1;entryX=0;entryY=0.5;entryDx=0;entryDy=0;" parent="1" source="16" target="136" edge="1">
                    <mxGeometry relative="1" as="geometry"/>
                </mxCell>
                <mxCell id="16" value="quast" style="whiteSpace=wrap;html=1;" parent="1" vertex="1">
                    <mxGeometry x="132.75" y="980" width="80" height="80" as="geometry"/>
                </mxCell>
                <mxCell id="19" value="" style="edgeStyle=none;html=1;" parent="1" source="17" target="15" edge="1">
                    <mxGeometry relative="1" as="geometry"/>
                </mxCell>
                <mxCell id="20" style="edgeStyle=none;html=1;entryX=0.5;entryY=0;entryDx=0;entryDy=0;" parent="1" source="17" target="16" edge="1">
                    <mxGeometry relative="1" as="geometry">
                        <Array as="points">
                            <mxPoint x="172.75" y="900"/>
                        </Array>
                    </mxGeometry>
                </mxCell>
                <mxCell id="22" style="edgeStyle=none;html=1;entryX=0.5;entryY=0;entryDx=0;entryDy=0;" parent="1" source="17" target="21" edge="1">
                    <mxGeometry relative="1" as="geometry">
                        <Array as="points">
                            <mxPoint x="292.75" y="900"/>
                        </Array>
                    </mxGeometry>
                </mxCell>
                <mxCell id="24" style="edgeStyle=none;html=1;entryX=0.5;entryY=0;entryDx=0;entryDy=0;" parent="1" source="17" target="23" edge="1">
                    <mxGeometry relative="1" as="geometry">
                        <Array as="points">
                            <mxPoint x="412.75" y="900"/>
                        </Array>
                    </mxGeometry>
                </mxCell>
                <mxCell id="35" style="edgeStyle=none;html=1;entryX=0.5;entryY=0;entryDx=0;entryDy=0;" parent="1" source="17" target="34" edge="1">
                    <mxGeometry relative="1" as="geometry">
                        <Array as="points">
                            <mxPoint x="532.75" y="900"/>
                        </Array>
                    </mxGeometry>
                </mxCell>
                <mxCell id="38" style="edgeStyle=none;html=1;entryX=0.5;entryY=0;entryDx=0;entryDy=0;" parent="1" source="17" target="37" edge="1">
                    <mxGeometry relative="1" as="geometry">
                        <Array as="points">
                            <mxPoint x="652.75" y="900"/>
                        </Array>
                    </mxGeometry>
                </mxCell>
                <mxCell id="17" value="spades" style="whiteSpace=wrap;html=1;" parent="1" vertex="1">
                    <mxGeometry x="12.75" y="860" width="80" height="80" as="geometry"/>
                </mxCell>
                <mxCell id="21" value="kraken2&lt;br&gt;_assembly" style="whiteSpace=wrap;html=1;" parent="1" vertex="1">
                    <mxGeometry x="252.75" y="980" width="80" height="80" as="geometry"/>
                </mxCell>
                <mxCell id="139" style="edgeStyle=none;html=1;entryX=1;entryY=0.5;entryDx=0;entryDy=0;" parent="1" source="23" target="136" edge="1">
                    <mxGeometry relative="1" as="geometry"/>
                </mxCell>
                <mxCell id="23" value="mash&lt;br&gt;_fastani" style="whiteSpace=wrap;html=1;" parent="1" vertex="1">
                    <mxGeometry x="372.75" y="980" width="80" height="80" as="geometry"/>
                </mxCell>
                <mxCell id="34" value="mlst" style="whiteSpace=wrap;html=1;" parent="1" vertex="1">
                    <mxGeometry x="492.75" y="980" width="80" height="80" as="geometry"/>
                </mxCell>
                <mxCell id="37" value="amr&lt;br&gt;_finder" style="whiteSpace=wrap;html=1;" parent="1" vertex="1">
                    <mxGeometry x="612.75" y="980" width="80" height="80" as="geometry"/>
                </mxCell>
                <mxCell id="40" value="WGS PIPELINE" style="text;html=1;align=center;verticalAlign=middle;resizable=0;points=[];autosize=1;strokeColor=none;fillColor=none;fontStyle=1;fontSize=24;" parent="1" vertex="1">
                    <mxGeometry x="39.5" y="40" width="200" height="40" as="geometry"/>
                </mxCell>
                <mxCell id="58" value="bbduk.sh" style="rounded=1;whiteSpace=wrap;html=1;shadow=0;glass=0;sketch=0;strokeWidth=1;fontSize=12;fillColor=none;gradientColor=default;" parent="1" vertex="1">
                    <mxGeometry x="120" y="280" width="79.75" height="40" as="geometry"/>
                </mxCell>
                <mxCell id="75" value="BBDUK REF" style="text;html=1;align=center;verticalAlign=middle;resizable=0;points=[];autosize=1;strokeColor=none;fillColor=none;fontSize=8;" parent="1" vertex="1">
                    <mxGeometry x="205" y="220" width="70" height="20" as="geometry"/>
                </mxCell>
                <mxCell id="74" value="" style="group" parent="1" vertex="1" connectable="0">
                    <mxGeometry x="220" y="240" width="40" height="40" as="geometry"/>
                </mxCell>
                <mxCell id="66" value="" style="ellipse;whiteSpace=wrap;html=1;rounded=1;shadow=0;glass=0;sketch=0;strokeWidth=1;fontSize=16;fillColor=none;gradientColor=default;" parent="74" vertex="1">
                    <mxGeometry width="40" height="8" as="geometry"/>
                </mxCell>
                <mxCell id="67" value="" style="ellipse;whiteSpace=wrap;html=1;rounded=1;shadow=0;glass=0;sketch=0;strokeWidth=1;fontSize=16;fillColor=none;gradientColor=default;" parent="74" vertex="1">
                    <mxGeometry y="32" width="40" height="8" as="geometry"/>
                </mxCell>
                <mxCell id="71" value="" style="edgeStyle=none;orthogonalLoop=1;jettySize=auto;html=1;fontSize=16;exitX=0;exitY=0.5;exitDx=0;exitDy=0;entryX=0;entryY=0.5;entryDx=0;entryDy=0;shape=link;strokeColor=none;" parent="74" source="66" target="67" edge="1">
                    <mxGeometry width="100" relative="1" as="geometry">
                        <mxPoint y="72" as="sourcePoint"/>
                        <mxPoint x="100" y="72" as="targetPoint"/>
                        <Array as="points"/>
                    </mxGeometry>
                </mxCell>
                <mxCell id="72" value="" style="endArrow=none;html=1;strokeColor=default;fontSize=16;entryX=0;entryY=0.5;entryDx=0;entryDy=0;exitX=0;exitY=0.5;exitDx=0;exitDy=0;" parent="74" source="67" target="66" edge="1">
                    <mxGeometry width="50" height="50" relative="1" as="geometry">
                        <mxPoint x="-140" y="96" as="sourcePoint"/>
                        <mxPoint x="-90" y="56" as="targetPoint"/>
                    </mxGeometry>
                </mxCell>
                <mxCell id="73" value="" style="endArrow=none;html=1;strokeColor=default;fontSize=16;entryX=1;entryY=0.5;entryDx=0;entryDy=0;exitX=1;exitY=0.5;exitDx=0;exitDy=0;" parent="74" source="67" target="66" edge="1">
                    <mxGeometry width="50" height="50" relative="1" as="geometry">
                        <mxPoint x="59.99999999999682" y="40.00000000000009" as="sourcePoint"/>
                        <mxPoint x="59.99999999999682" y="8" as="targetPoint"/>
                    </mxGeometry>
                </mxCell>
                <mxCell id="104" style="edgeStyle=none;rounded=0;sketch=0;html=1;exitX=0.25;exitY=1;exitDx=0;exitDy=0;fontSize=12;strokeColor=#CCE5FF;" parent="1" edge="1">
                    <mxGeometry relative="1" as="geometry">
                        <mxPoint x="149.6825" y="400" as="sourcePoint"/>
                        <mxPoint x="130" y="640" as="targetPoint"/>
                        <Array as="points">
                            <mxPoint x="150" y="440"/>
                            <mxPoint x="130" y="440"/>
                        </Array>
                    </mxGeometry>
                </mxCell>
                <mxCell id="127" style="edgeStyle=none;rounded=0;sketch=0;html=1;strokeColor=#E6FFCC;fontSize=4;fontColor=#FFFFFF;entryX=0.558;entryY=-0.003;entryDx=0;entryDy=0;entryPerimeter=0;" parent="1" edge="1" target="134">
                    <mxGeometry relative="1" as="geometry">
                        <mxPoint x="199.12" y="374.9606150023296" as="sourcePoint"/>
                        <mxPoint x="445" y="440" as="targetPoint"/>
                        <Array as="points">
                            <mxPoint x="445" y="375"/>
                        </Array>
                    </mxGeometry>
                </mxCell>
                <mxCell id="80" value="fastp" style="rounded=1;whiteSpace=wrap;html=1;shadow=0;glass=0;sketch=0;strokeWidth=1;fontSize=12;fillColor=none;gradientColor=default;" parent="1" vertex="1">
                    <mxGeometry x="119.87" y="360" width="79.25" height="40" as="geometry"/>
                </mxCell>
                <mxCell id="88" style="edgeStyle=orthogonalEdgeStyle;html=1;entryX=1;entryY=0.5;entryDx=0;entryDy=0;dashed=1;strokeColor=default;fontSize=24;rounded=0;" parent="1" source="67" target="58" edge="1">
                    <mxGeometry relative="1" as="geometry">
                        <Array as="points">
                            <mxPoint x="239.5" y="295"/>
                            <mxPoint x="239.5" y="305"/>
                        </Array>
                    </mxGeometry>
                </mxCell>
                <mxCell id="94" value="Reports" style="text;html=1;align=center;verticalAlign=middle;whiteSpace=wrap;rounded=0;shadow=0;glass=0;sketch=0;strokeWidth=1;fontSize=8;fontColor=#CCE5FF;" parent="1" vertex="1">
                    <mxGeometry x="94" y="400" width="30" height="30" as="geometry"/>
                </mxCell>
                <mxCell id="98" style="html=1;strokeColor=default;fontSize=12;rounded=0;exitX=0.418;exitY=1.007;exitDx=0;exitDy=0;exitPerimeter=0;" parent="1" edge="1">
                    <mxGeometry relative="1" as="geometry">
                        <mxPoint x="155" y="280" as="targetPoint"/>
                        <mxPoint x="155" y="160.21" as="sourcePoint"/>
                    </mxGeometry>
                </mxCell>
                <mxCell id="95" value="PAIRED INPUTS" style="text;html=1;align=center;verticalAlign=middle;resizable=0;points=[];autosize=1;strokeColor=none;fillColor=none;fontSize=12;rounded=1;shadow=0;glass=0;sketch=0;strokeWidth=2;" parent="1" vertex="1">
                    <mxGeometry x="104.5" y="130" width="110" height="30" as="geometry"/>
                </mxCell>
                <mxCell id="100" style="html=1;strokeColor=default;fontSize=12;rounded=0;exitX=0.418;exitY=1.007;exitDx=0;exitDy=0;exitPerimeter=0;" parent="1" edge="1">
                    <mxGeometry relative="1" as="geometry">
                        <mxPoint x="165" y="280" as="targetPoint"/>
                        <mxPoint x="165" y="160.13" as="sourcePoint"/>
                    </mxGeometry>
                </mxCell>
                <mxCell id="101" style="html=1;strokeColor=default;fontSize=12;rounded=0;exitX=0.418;exitY=1.007;exitDx=0;exitDy=0;exitPerimeter=0;" parent="1" edge="1">
                    <mxGeometry relative="1" as="geometry">
                        <mxPoint x="164.87" y="360" as="targetPoint"/>
                        <mxPoint x="164.86999999999995" y="320" as="sourcePoint"/>
                    </mxGeometry>
                </mxCell>
                <mxCell id="102" style="html=1;strokeColor=default;fontSize=12;rounded=0;exitX=0.418;exitY=1.007;exitDx=0;exitDy=0;exitPerimeter=0;" parent="1" edge="1">
                    <mxGeometry relative="1" as="geometry">
                        <mxPoint x="154.87" y="360" as="targetPoint"/>
                        <mxPoint x="154.86999999999995" y="320" as="sourcePoint"/>
                    </mxGeometry>
                </mxCell>
                <mxCell id="105" style="edgeStyle=none;rounded=0;sketch=0;html=1;exitX=0.25;exitY=1;exitDx=0;exitDy=0;fontSize=12;strokeColor=#CCE5FF;" parent="1" edge="1">
                    <mxGeometry relative="1" as="geometry">
                        <mxPoint x="139.0025" y="400.1" as="sourcePoint"/>
                        <mxPoint x="139" y="422" as="targetPoint"/>
                    </mxGeometry>
                </mxCell>
                <mxCell id="106" value="Trimmed&lt;br&gt;Outputs" style="text;html=1;align=center;verticalAlign=middle;resizable=0;points=[];autosize=1;strokeColor=none;fillColor=none;fontSize=8;rounded=1;shadow=0;glass=0;sketch=0;strokeWidth=2;" parent="1" vertex="1">
                    <mxGeometry x="164.5" y="320" width="50" height="30" as="geometry"/>
                </mxCell>
                <mxCell id="108" value="HTML" style="text;html=1;align=center;verticalAlign=middle;whiteSpace=wrap;rounded=0;shadow=0;glass=0;sketch=0;strokeWidth=1;fontSize=4;fontColor=#CCE5FF;" parent="1" vertex="1">
                    <mxGeometry x="116" y="397" width="25.5" height="20" as="geometry"/>
                </mxCell>
                <mxCell id="109" value="JSON" style="text;html=1;align=center;verticalAlign=middle;whiteSpace=wrap;rounded=0;shadow=0;glass=0;sketch=0;strokeWidth=1;fontSize=4;fontColor=#CCE5FF;" parent="1" vertex="1">
                    <mxGeometry x="144" y="400" width="25.5" height="20" as="geometry"/>
                </mxCell>
                <mxCell id="110" style="edgeStyle=none;rounded=0;sketch=0;html=1;exitX=0.25;exitY=1;exitDx=0;exitDy=0;strokeColor=#FF99CC;fontSize=12;" parent="1" edge="1">
                    <mxGeometry relative="1" as="geometry">
                        <mxPoint x="179.6825" y="400" as="sourcePoint"/>
                        <mxPoint x="190" y="460" as="targetPoint"/>
                        <Array as="points">
                            <mxPoint x="180" y="430"/>
                            <mxPoint x="190" y="430"/>
                        </Array>
                    </mxGeometry>
                </mxCell>
                <mxCell id="111" value="Unpaired Reads" style="text;html=1;strokeColor=none;fillColor=none;align=center;verticalAlign=middle;whiteSpace=wrap;rounded=0;shadow=0;glass=0;sketch=0;strokeWidth=1;fontSize=8;fontColor=#FF99CC;" parent="1" vertex="1">
                    <mxGeometry x="185" y="400" width="60" height="30" as="geometry"/>
                </mxCell>
                <mxCell id="112" style="edgeStyle=none;rounded=0;sketch=0;html=1;exitX=0.25;exitY=1;exitDx=0;exitDy=0;strokeColor=#FF99CC;fontSize=12;" parent="1" edge="1">
                    <mxGeometry relative="1" as="geometry">
                        <mxPoint x="169.0025" y="400.1" as="sourcePoint"/>
                        <mxPoint x="170" y="460" as="targetPoint"/>
                        <Array as="points">
                            <mxPoint x="169" y="430"/>
                            <mxPoint x="170" y="430"/>
                        </Array>
                    </mxGeometry>
                </mxCell>
                <mxCell id="116" style="edgeStyle=none;rounded=0;sketch=0;html=1;entryX=0.5;entryY=0;entryDx=0;entryDy=0;strokeColor=#FF99CC;fontSize=12;" parent="1" source="113" target="115" edge="1">
                    <mxGeometry relative="1" as="geometry"/>
                </mxCell>
                <mxCell id="113" value="cat" style="rounded=1;whiteSpace=wrap;html=1;shadow=0;glass=0;sketch=0;strokeWidth=1;fontSize=12;fillColor=none;gradientColor=default;" parent="1" vertex="1">
                    <mxGeometry x="140.75" y="460" width="79.25" height="40" as="geometry"/>
                </mxCell>
                <mxCell id="115" value="fastp" style="rounded=1;whiteSpace=wrap;html=1;shadow=0;glass=0;sketch=0;strokeWidth=1;fontSize=12;fillColor=none;gradientColor=default;" parent="1" vertex="1">
                    <mxGeometry x="140.75" y="540" width="79.25" height="40" as="geometry"/>
                </mxCell>
                <mxCell id="117" value="Concatenated&lt;br&gt;Unpaired Reads" style="text;html=1;strokeColor=none;fillColor=none;align=center;verticalAlign=middle;whiteSpace=wrap;rounded=0;shadow=0;glass=0;sketch=0;strokeWidth=1;fontSize=8;fontColor=#FF99CC;" parent="1" vertex="1">
                    <mxGeometry x="185" y="500" width="60" height="30" as="geometry"/>
                </mxCell>
                <mxCell id="118" style="edgeStyle=none;rounded=0;sketch=0;html=1;exitX=0.25;exitY=1;exitDx=0;exitDy=0;fontSize=12;strokeColor=#CCE5FF;" parent="1" edge="1">
                    <mxGeometry relative="1" as="geometry">
                        <mxPoint x="165.1825" y="580" as="sourcePoint"/>
                        <mxPoint x="150" y="640" as="targetPoint"/>
                        <Array as="points">
                            <mxPoint x="165" y="610"/>
                            <mxPoint x="150" y="610"/>
                        </Array>
                    </mxGeometry>
                </mxCell>
                <mxCell id="119" value="Reports" style="text;html=1;align=center;verticalAlign=middle;whiteSpace=wrap;rounded=0;shadow=0;glass=0;sketch=0;strokeWidth=1;fontSize=8;fontColor=#CCE5FF;" parent="1" vertex="1">
                    <mxGeometry x="169" y="590" width="30" height="30" as="geometry"/>
                </mxCell>
                <mxCell id="120" style="edgeStyle=none;rounded=0;sketch=0;html=1;exitX=0.25;exitY=1;exitDx=0;exitDy=0;fontSize=12;strokeColor=#CCE5FF;" parent="1" edge="1">
                    <mxGeometry relative="1" as="geometry">
                        <mxPoint x="154.50249999999994" y="580.1" as="sourcePoint"/>
                        <mxPoint x="155" y="600" as="targetPoint"/>
                    </mxGeometry>
                </mxCell>
                <mxCell id="121" value="HTML" style="text;html=1;align=center;verticalAlign=middle;whiteSpace=wrap;rounded=0;shadow=0;glass=0;sketch=0;strokeWidth=1;fontSize=4;fontColor=#CCE5FF;" parent="1" vertex="1">
                    <mxGeometry x="131" y="578" width="25.5" height="20" as="geometry"/>
                </mxCell>
                <mxCell id="122" value="JSON" style="text;html=1;align=center;verticalAlign=middle;whiteSpace=wrap;rounded=0;shadow=0;glass=0;sketch=0;strokeWidth=1;fontSize=4;fontColor=#CCE5FF;" parent="1" vertex="1">
                    <mxGeometry x="159.5" y="580" width="25.5" height="20" as="geometry"/>
                </mxCell>
                <mxCell id="126" style="edgeStyle=none;rounded=0;sketch=0;html=1;entryX=0.383;entryY=0;entryDx=0;entryDy=0;strokeColor=#FFFFFF;fontSize=4;fontColor=#FFB366;exitX=0;exitY=0;exitDx=0;exitDy=0;entryPerimeter=0;" parent="1" source="125" target="162" edge="1">
                    <mxGeometry relative="1" as="geometry">
                        <Array as="points">
                            <mxPoint x="250" y="660"/>
                            <mxPoint x="250" y="630"/>
                            <mxPoint x="370" y="630"/>
                        </Array>
                    </mxGeometry>
                </mxCell>
                <mxCell id="123" value="FastP_QC.py" style="rounded=1;whiteSpace=wrap;html=1;shadow=0;glass=0;sketch=0;strokeWidth=1;fontSize=12;fillColor=none;gradientColor=default;fontColor=#FFB366;strokeColor=#FFB366;" parent="1" vertex="1">
                    <mxGeometry x="99.88" y="640" width="79.25" height="40" as="geometry"/>
                </mxCell>
                <mxCell id="125" value="Read Counts" style="text;html=1;strokeColor=none;fillColor=none;align=center;verticalAlign=middle;whiteSpace=wrap;rounded=0;shadow=0;glass=0;sketch=0;strokeWidth=1;fontSize=8;" parent="1" vertex="1">
                    <mxGeometry x="179.5" y="660" width="60" height="30" as="geometry"/>
                </mxCell>
                <mxCell id="128" style="edgeStyle=none;rounded=0;sketch=0;html=1;strokeColor=#E6FFCC;fontSize=4;fontColor=#FFFFFF;entryX=0.437;entryY=0;entryDx=0;entryDy=0;entryPerimeter=0;" parent="1" edge="1" target="134">
                    <mxGeometry relative="1" as="geometry">
                        <mxPoint x="199.12" y="384.9606150023296" as="sourcePoint"/>
                        <mxPoint x="435" y="440" as="targetPoint"/>
                        <Array as="points">
                            <mxPoint x="435" y="385"/>
                        </Array>
                    </mxGeometry>
                </mxCell>
                <mxCell id="129" value="Paired Reads" style="text;html=1;strokeColor=none;fillColor=none;align=center;verticalAlign=middle;whiteSpace=wrap;rounded=0;shadow=0;glass=0;sketch=0;strokeWidth=1;fontSize=8;fontColor=#E6FFCC;" parent="1" vertex="1">
                    <mxGeometry x="199" y="345" width="60" height="30" as="geometry"/>
                </mxCell>
                <mxCell id="132" value="Trimmed Unpaired Reads" style="text;html=1;strokeColor=none;fillColor=none;align=center;verticalAlign=middle;whiteSpace=wrap;rounded=0;shadow=0;glass=0;sketch=0;strokeWidth=1;fontSize=8;fontColor=#FF99CC;" parent="1" vertex="1">
                    <mxGeometry x="215" y="570" width="60" height="30" as="geometry"/>
                </mxCell>
                <mxCell id="149" style="edgeStyle=none;html=1;endArrow=none;endFill=0;" edge="1" parent="1" source="134">
                    <mxGeometry relative="1" as="geometry">
                        <mxPoint x="440" y="548.5" as="targetPoint"/>
                    </mxGeometry>
                </mxCell>
                <mxCell id="134" value="kraken2" style="rounded=1;whiteSpace=wrap;html=1;shadow=0;glass=0;sketch=0;strokeWidth=1;fontSize=12;fillColor=none;gradientColor=default;" parent="1" vertex="1">
                    <mxGeometry x="400.13" y="478.5" width="79.75" height="40" as="geometry"/>
                </mxCell>
                <mxCell id="136" value="assembly&lt;br&gt;_ratio" style="whiteSpace=wrap;html=1;" parent="1" vertex="1">
                    <mxGeometry x="229.75" y="1089" width="80" height="80" as="geometry"/>
                </mxCell>
                <mxCell id="140" value="" style="group" vertex="1" connectable="0" parent="1">
                    <mxGeometry x="500" y="438.5" width="40" height="40" as="geometry"/>
                </mxCell>
                <mxCell id="141" value="" style="ellipse;whiteSpace=wrap;html=1;rounded=1;shadow=0;glass=0;sketch=0;strokeWidth=1;fontSize=16;fillColor=none;gradientColor=default;" vertex="1" parent="140">
                    <mxGeometry width="40" height="8" as="geometry"/>
                </mxCell>
                <mxCell id="142" value="" style="ellipse;whiteSpace=wrap;html=1;rounded=1;shadow=0;glass=0;sketch=0;strokeWidth=1;fontSize=16;fillColor=none;gradientColor=default;" vertex="1" parent="140">
                    <mxGeometry y="32" width="40" height="8" as="geometry"/>
                </mxCell>
                <mxCell id="143" value="" style="edgeStyle=none;orthogonalLoop=1;jettySize=auto;html=1;fontSize=16;exitX=0;exitY=0.5;exitDx=0;exitDy=0;entryX=0;entryY=0.5;entryDx=0;entryDy=0;shape=link;strokeColor=none;" edge="1" parent="140" source="141" target="142">
                    <mxGeometry width="100" relative="1" as="geometry">
                        <mxPoint y="72" as="sourcePoint"/>
                        <mxPoint x="100" y="72" as="targetPoint"/>
                        <Array as="points"/>
                    </mxGeometry>
                </mxCell>
                <mxCell id="144" value="" style="endArrow=none;html=1;strokeColor=default;fontSize=16;entryX=0;entryY=0.5;entryDx=0;entryDy=0;exitX=0;exitY=0.5;exitDx=0;exitDy=0;" edge="1" parent="140" source="142" target="141">
                    <mxGeometry width="50" height="50" relative="1" as="geometry">
                        <mxPoint x="-140" y="96" as="sourcePoint"/>
                        <mxPoint x="-90" y="56" as="targetPoint"/>
                    </mxGeometry>
                </mxCell>
                <mxCell id="145" value="" style="endArrow=none;html=1;strokeColor=default;fontSize=16;entryX=1;entryY=0.5;entryDx=0;entryDy=0;exitX=1;exitY=0.5;exitDx=0;exitDy=0;" edge="1" parent="140" source="142" target="141">
                    <mxGeometry width="50" height="50" relative="1" as="geometry">
                        <mxPoint x="59.99999999999682" y="40.00000000000009" as="sourcePoint"/>
                        <mxPoint x="59.99999999999682" y="8" as="targetPoint"/>
                    </mxGeometry>
                </mxCell>
                <mxCell id="147" style="edgeStyle=none;html=1;entryX=1;entryY=0.5;entryDx=0;entryDy=0;dashed=1;rounded=0;" edge="1" parent="1" source="142" target="134">
                    <mxGeometry relative="1" as="geometry">
                        <Array as="points">
                            <mxPoint x="520" y="498.5"/>
                        </Array>
                    </mxGeometry>
                </mxCell>
                <mxCell id="148" value="KRAKEN DB" style="text;html=1;align=center;verticalAlign=middle;resizable=0;points=[];autosize=1;strokeColor=none;fillColor=none;fontSize=8;" vertex="1" parent="1">
                    <mxGeometry x="485" y="418.5" width="70" height="20" as="geometry"/>
                </mxCell>
                <mxCell id="150" value="Summary" style="text;html=1;align=center;verticalAlign=middle;resizable=0;points=[];autosize=1;strokeColor=none;fillColor=none;fontSize=8;rounded=1;shadow=0;glass=0;sketch=0;strokeWidth=2;" vertex="1" parent="1">
                    <mxGeometry x="384" y="523.5" width="60" height="20" as="geometry"/>
                </mxCell>
                <mxCell id="155" style="edgeStyle=none;html=1;entryX=0.248;entryY=0.708;entryDx=0;entryDy=0;entryPerimeter=0;fontSize=8;endArrow=classic;endFill=1;" edge="1" parent="1" source="152" target="133">
                    <mxGeometry relative="1" as="geometry"/>
                </mxCell>
                <mxCell id="152" value="kreport2mpa" style="rounded=1;whiteSpace=wrap;html=1;shadow=0;glass=0;sketch=0;strokeWidth=1;fontSize=12;fillColor=none;gradientColor=default;fontColor=#FFB366;strokeColor=#FFB366;" vertex="1" parent="1">
                    <mxGeometry x="340" y="568.5" width="79.25" height="40" as="geometry"/>
                </mxCell>
                <mxCell id="156" style="edgeStyle=none;html=1;entryX=0.5;entryY=0;entryDx=0;entryDy=0;fontSize=8;endArrow=classic;endFill=1;" edge="1" parent="1" source="153" target="159">
                    <mxGeometry relative="1" as="geometry"/>
                </mxCell>
                <mxCell id="153" value="kreport2krona" style="rounded=1;whiteSpace=wrap;html=1;shadow=0;glass=0;sketch=0;strokeWidth=1;fontSize=12;fillColor=none;gradientColor=default;fontColor=#FFB366;strokeColor=#FFB366;" vertex="1" parent="1">
                    <mxGeometry x="460.75" y="568.5" width="79.25" height="40" as="geometry"/>
                </mxCell>
                <mxCell id="154" value="" style="edgeStyle=none;orthogonalLoop=1;jettySize=auto;html=1;endArrow=classic;startArrow=classic;endSize=8;startSize=8;fontSize=8;entryX=0.5;entryY=0;entryDx=0;entryDy=0;exitX=0.5;exitY=0;exitDx=0;exitDy=0;rounded=0;" edge="1" parent="1" source="152" target="153">
                    <mxGeometry width="100" relative="1" as="geometry">
                        <mxPoint x="390.01" y="558.5" as="sourcePoint"/>
                        <mxPoint x="490.01" y="558.5" as="targetPoint"/>
                        <Array as="points">
                            <mxPoint x="380" y="548.5"/>
                            <mxPoint x="440" y="548.5"/>
                            <mxPoint x="500" y="548.5"/>
                        </Array>
                    </mxGeometry>
                </mxCell>
                <mxCell id="157" value="MPA" style="text;html=1;align=center;verticalAlign=middle;resizable=0;points=[];autosize=1;strokeColor=none;fillColor=none;fontSize=8;rounded=1;shadow=0;glass=0;sketch=0;strokeWidth=2;" vertex="1" parent="1">
                    <mxGeometry x="340" y="608.5" width="40" height="20" as="geometry"/>
                </mxCell>
                <mxCell id="158" value="KRONA" style="text;html=1;align=center;verticalAlign=middle;resizable=0;points=[];autosize=1;strokeColor=none;fillColor=none;fontSize=8;rounded=1;shadow=0;glass=0;sketch=0;strokeWidth=2;" vertex="1" parent="1">
                    <mxGeometry x="450" y="608.5" width="50" height="20" as="geometry"/>
                </mxCell>
                <mxCell id="180" style="edgeStyle=none;rounded=0;html=1;fontSize=12;endArrow=classic;endFill=1;" edge="1" parent="1" source="159">
                    <mxGeometry relative="1" as="geometry">
                        <mxPoint x="500.625" y="750" as="targetPoint"/>
                    </mxGeometry>
                </mxCell>
                <mxCell id="159" value="ktImportText" style="rounded=1;whiteSpace=wrap;html=1;shadow=0;glass=0;sketch=0;strokeWidth=1;fontSize=12;fillColor=none;gradientColor=default;" vertex="1" parent="1">
                    <mxGeometry x="460.75" y="648.5" width="79.75" height="40" as="geometry"/>
                </mxCell>
                <mxCell id="161" value="HTML" style="text;html=1;align=center;verticalAlign=middle;resizable=0;points=[];autosize=1;strokeColor=none;fillColor=none;fontSize=8;rounded=1;shadow=0;glass=0;sketch=0;strokeWidth=2;" vertex="1" parent="1">
                    <mxGeometry x="490" y="690" width="50" height="20" as="geometry"/>
                </mxCell>
                <mxCell id="165" style="edgeStyle=none;rounded=0;html=1;entryX=0.25;entryY=1;entryDx=0;entryDy=0;fontSize=7;endArrow=classic;endFill=1;" edge="1" parent="1" source="162" target="133">
                    <mxGeometry relative="1" as="geometry"/>
                </mxCell>
                <mxCell id="162" value="kraken2_best_hit.sh" style="rounded=1;whiteSpace=wrap;html=1;shadow=0;glass=0;sketch=0;strokeWidth=1;fontSize=8;fillColor=none;gradientColor=default;fontColor=#FFB366;strokeColor=#FFB366;" vertex="1" parent="1">
                    <mxGeometry x="340" y="648.5" width="79.25" height="40" as="geometry"/>
                </mxCell>
                <mxCell id="164" value="" style="edgeStyle=none;orthogonalLoop=1;jettySize=auto;html=1;fontSize=7;endArrow=classic;endFill=1;entryX=0.636;entryY=-0.005;entryDx=0;entryDy=0;entryPerimeter=0;rounded=0;" edge="1" parent="1" target="162">
                    <mxGeometry width="100" relative="1" as="geometry">
                        <mxPoint x="500" y="628.5" as="sourcePoint"/>
                        <mxPoint x="630" y="608.5" as="targetPoint"/>
                        <Array as="points">
                            <mxPoint x="390" y="628.5"/>
                        </Array>
                    </mxGeometry>
                </mxCell>
                <mxCell id="166" value="Top Kraken Hit" style="text;html=1;align=center;verticalAlign=middle;resizable=0;points=[];autosize=1;strokeColor=none;fillColor=none;fontSize=8;rounded=1;shadow=0;glass=0;sketch=0;strokeWidth=2;" vertex="1" parent="1">
                    <mxGeometry x="374" y="691.5" width="80" height="20" as="geometry"/>
                </mxCell>
                <mxCell id="167" value="ASSEMBLY" style="rounded=1;whiteSpace=wrap;html=1;glass=0;shadow=0;strokeWidth=2;horizontal=1;verticalAlign=top;spacingTop=8;fontSize=16;spacing=16;spacingLeft=0;spacingBottom=8;align=left;fontStyle=1;fillColor=none;" vertex="1" parent="1">
                    <mxGeometry x="320.01" y="200" width="439.99" height="160" as="geometry"/>
                </mxCell>
                <mxCell id="174" value="" style="edgeStyle=none;rounded=0;html=1;fontSize=12;endArrow=classic;endFill=1;" edge="1" parent="1" source="168" target="169">
                    <mxGeometry relative="1" as="geometry"/>
                </mxCell>
                <mxCell id="168" value="spades.py" style="rounded=1;whiteSpace=wrap;html=1;shadow=0;glass=0;sketch=0;strokeWidth=1;fontSize=12;fillColor=none;gradientColor=default;" vertex="1" parent="1">
                    <mxGeometry x="400.13" y="280" width="79.75" height="40" as="geometry"/>
                </mxCell>
                <mxCell id="175" value="" style="edgeStyle=none;rounded=0;html=1;fontSize=12;endArrow=classic;endFill=1;" edge="1" parent="1" source="169" target="170">
                    <mxGeometry relative="1" as="geometry"/>
                </mxCell>
                <mxCell id="169" value="rename&lt;br style=&quot;font-size: 8px;&quot;&gt;_fasta&lt;br style=&quot;font-size: 8px;&quot;&gt;_headers.py" style="rounded=1;whiteSpace=wrap;html=1;shadow=0;glass=0;sketch=0;strokeWidth=1;fontSize=8;fillColor=none;gradientColor=default;strokeColor=#FFB366;fontColor=#FFB366;" vertex="1" parent="1">
                    <mxGeometry x="520" y="280" width="79.75" height="40" as="geometry"/>
                </mxCell>
                <mxCell id="179" style="edgeStyle=none;rounded=0;html=1;fontSize=12;endArrow=classic;endFill=1;" edge="1" parent="1" source="170">
                    <mxGeometry relative="1" as="geometry">
                        <mxPoint x="600" y="860" as="targetPoint"/>
                        <Array as="points">
                            <mxPoint x="680" y="330"/>
                            <mxPoint x="600" y="330"/>
                            <mxPoint x="600" y="400"/>
                        </Array>
                    </mxGeometry>
                </mxCell>
                <mxCell id="170" value="reformat.sh" style="rounded=1;whiteSpace=wrap;html=1;shadow=0;glass=0;sketch=0;strokeWidth=1;fontSize=12;fillColor=none;gradientColor=default;" vertex="1" parent="1">
                    <mxGeometry x="640" y="280" width="79.75" height="40" as="geometry"/>
                </mxCell>
                <mxCell id="172" value="" style="edgeStyle=none;orthogonalLoop=1;jettySize=auto;html=1;rounded=0;fontSize=4;endArrow=classic;endFill=1;entryX=0.284;entryY=0.75;entryDx=0;entryDy=0;entryPerimeter=0;strokeColor=#E6FFCC;fontColor=#FFFFFF;sketch=0;" edge="1" parent="1" target="167">
                    <mxGeometry width="100" relative="1" as="geometry">
                        <mxPoint x="445" y="375" as="sourcePoint"/>
                        <mxPoint x="520" y="380" as="targetPoint"/>
                        <Array as="points"/>
                    </mxGeometry>
                </mxCell>
                <mxCell id="173" value="" style="edgeStyle=none;orthogonalLoop=1;jettySize=auto;html=1;rounded=0;fontSize=4;endArrow=classic;endFill=1;entryX=0.261;entryY=0.75;entryDx=0;entryDy=0;entryPerimeter=0;strokeColor=#E6FFCC;fontColor=#FFFFFF;sketch=0;" edge="1" parent="1" target="167">
                    <mxGeometry width="100" relative="1" as="geometry">
                        <mxPoint x="435.03" y="385" as="sourcePoint"/>
                        <mxPoint x="434.9971599999999" y="330" as="targetPoint"/>
                        <Array as="points"/>
                    </mxGeometry>
                </mxCell>
                <mxCell id="176" value="Scaffolds" style="text;html=1;align=center;verticalAlign=middle;resizable=0;points=[];autosize=1;strokeColor=none;fillColor=none;fontSize=8;rounded=1;shadow=0;glass=0;sketch=0;strokeWidth=2;" vertex="1" parent="1">
                    <mxGeometry x="470" y="280" width="60" height="20" as="geometry"/>
                </mxCell>
                <mxCell id="177" value="Renamed&lt;br&gt;Scaffolds" style="text;html=1;align=center;verticalAlign=middle;resizable=0;points=[];autosize=1;strokeColor=none;fillColor=none;fontSize=8;rounded=1;shadow=0;glass=0;sketch=0;strokeWidth=2;" vertex="1" parent="1">
                    <mxGeometry x="590" y="270" width="60" height="30" as="geometry"/>
                </mxCell>
                <mxCell id="178" value="Filtered Scaffolds" style="text;html=1;align=center;verticalAlign=middle;resizable=0;points=[];autosize=1;strokeColor=none;fillColor=none;fontSize=8;rounded=1;shadow=0;glass=0;sketch=0;strokeWidth=2;" vertex="1" parent="1">
                    <mxGeometry x="613" y="330" width="90" height="20" as="geometry"/>
                </mxCell>
                <mxCell id="181" value="GAMMA" style="rounded=1;whiteSpace=wrap;html=1;glass=0;shadow=0;strokeWidth=2;horizontal=1;verticalAlign=top;spacingTop=8;fontSize=16;spacing=16;spacingLeft=0;spacingBottom=8;align=right;fontStyle=1;fillColor=none;" vertex="1" parent="1">
                    <mxGeometry x="639.75" y="400" width="160" height="401.5" as="geometry"/>
                </mxCell>
                <mxCell id="225" style="edgeStyle=none;rounded=0;html=1;fontSize=12;endArrow=classic;endFill=1;" edge="1" parent="1" target="182">
                    <mxGeometry relative="1" as="geometry">
                        <mxPoint x="599.75" y="510" as="sourcePoint"/>
                    </mxGeometry>
                </mxCell>
                <mxCell id="234" style="edgeStyle=none;rounded=0;html=1;fontSize=12;endArrow=classic;endFill=1;" edge="1" parent="1" source="182">
                    <mxGeometry relative="1" as="geometry">
                        <mxPoint x="790" y="840" as="targetPoint"/>
                        <Array as="points">
                            <mxPoint x="790" y="510"/>
                        </Array>
                    </mxGeometry>
                </mxCell>
                <mxCell id="182" value="GAMMA.py" style="rounded=1;whiteSpace=wrap;html=1;shadow=0;glass=0;sketch=0;strokeWidth=1;fontSize=12;fillColor=none;gradientColor=default;" vertex="1" parent="1">
                    <mxGeometry x="680" y="490" width="79.75" height="40" as="geometry"/>
                </mxCell>
                <mxCell id="185" value="" style="group" vertex="1" connectable="0" parent="1">
                    <mxGeometry x="659.62" y="431.5" width="40" height="40" as="geometry"/>
                </mxCell>
                <mxCell id="186" value="" style="ellipse;whiteSpace=wrap;html=1;rounded=1;shadow=0;glass=0;sketch=0;strokeWidth=1;fontSize=16;fillColor=none;gradientColor=default;" vertex="1" parent="185">
                    <mxGeometry width="40" height="8" as="geometry"/>
                </mxCell>
                <mxCell id="187" value="" style="ellipse;whiteSpace=wrap;html=1;rounded=1;shadow=0;glass=0;sketch=0;strokeWidth=1;fontSize=16;fillColor=none;gradientColor=default;" vertex="1" parent="185">
                    <mxGeometry y="32" width="40" height="8" as="geometry"/>
                </mxCell>
                <mxCell id="188" value="" style="edgeStyle=none;orthogonalLoop=1;jettySize=auto;html=1;fontSize=16;exitX=0;exitY=0.5;exitDx=0;exitDy=0;entryX=0;entryY=0.5;entryDx=0;entryDy=0;shape=link;strokeColor=none;" edge="1" parent="185" source="186" target="187">
                    <mxGeometry width="100" relative="1" as="geometry">
                        <mxPoint y="72" as="sourcePoint"/>
                        <mxPoint x="100" y="72" as="targetPoint"/>
                        <Array as="points"/>
                    </mxGeometry>
                </mxCell>
                <mxCell id="189" value="" style="endArrow=none;html=1;strokeColor=default;fontSize=16;entryX=0;entryY=0.5;entryDx=0;entryDy=0;exitX=0;exitY=0.5;exitDx=0;exitDy=0;" edge="1" parent="185" source="187" target="186">
                    <mxGeometry width="50" height="50" relative="1" as="geometry">
                        <mxPoint x="-140" y="96" as="sourcePoint"/>
                        <mxPoint x="-90" y="56" as="targetPoint"/>
                    </mxGeometry>
                </mxCell>
                <mxCell id="190" value="" style="endArrow=none;html=1;strokeColor=default;fontSize=16;entryX=1;entryY=0.5;entryDx=0;entryDy=0;exitX=1;exitY=0.5;exitDx=0;exitDy=0;" edge="1" parent="185" source="187" target="186">
                    <mxGeometry width="50" height="50" relative="1" as="geometry">
                        <mxPoint x="59.99999999999682" y="40.00000000000009" as="sourcePoint"/>
                        <mxPoint x="59.99999999999682" y="8" as="targetPoint"/>
                    </mxGeometry>
                </mxCell>
                <mxCell id="203" value="HYPERVIRULENCE REF" style="text;html=1;align=center;verticalAlign=middle;resizable=0;points=[];autosize=1;strokeColor=none;fillColor=none;fontSize=8;" vertex="1" parent="1">
                    <mxGeometry x="692.75" y="451.5" width="110" height="20" as="geometry"/>
                </mxCell>
                <mxCell id="204" value="RESGAN REF" style="text;html=1;align=center;verticalAlign=middle;resizable=0;points=[];autosize=1;strokeColor=none;fillColor=none;fontSize=8;" vertex="1" parent="1">
                    <mxGeometry x="692.75" y="571.5" width="80" height="20" as="geometry"/>
                </mxCell>
                <mxCell id="205" value="PLASMIDFINDER&lt;br&gt;REF" style="text;html=1;align=center;verticalAlign=middle;resizable=0;points=[];autosize=1;strokeColor=none;fillColor=none;fontSize=8;" vertex="1" parent="1">
                    <mxGeometry x="689.62" y="680" width="90" height="30" as="geometry"/>
                </mxCell>
                <mxCell id="207" value="" style="edgeStyle=none;orthogonalLoop=1;jettySize=auto;html=1;rounded=0;dashed=1;fontSize=12;endArrow=classic;endFill=1;entryX=0;entryY=0.25;entryDx=0;entryDy=0;exitX=0;exitY=1;exitDx=0;exitDy=0;" edge="1" parent="1" source="187" target="182">
                    <mxGeometry width="100" relative="1" as="geometry">
                        <mxPoint x="579.75" y="481.5" as="sourcePoint"/>
                        <mxPoint x="679.75" y="481.5" as="targetPoint"/>
                        <Array as="points">
                            <mxPoint x="665.75" y="501.5"/>
                        </Array>
                    </mxGeometry>
                </mxCell>
                <mxCell id="226" style="edgeStyle=none;rounded=0;html=1;fontSize=12;endArrow=classic;endFill=1;" edge="1" parent="1" target="209">
                    <mxGeometry relative="1" as="geometry">
                        <mxPoint x="599.7499999999999" y="630" as="sourcePoint"/>
                    </mxGeometry>
                </mxCell>
                <mxCell id="235" style="edgeStyle=none;rounded=0;html=1;fontSize=12;endArrow=classic;endFill=1;" edge="1" parent="1" source="209">
                    <mxGeometry relative="1" as="geometry">
                        <mxPoint x="780" y="840" as="targetPoint"/>
                        <Array as="points">
                            <mxPoint x="780" y="630"/>
                        </Array>
                    </mxGeometry>
                </mxCell>
                <mxCell id="209" value="GAMMA.py" style="rounded=1;whiteSpace=wrap;html=1;shadow=0;glass=0;sketch=0;strokeWidth=1;fontSize=12;fillColor=none;gradientColor=default;" vertex="1" parent="1">
                    <mxGeometry x="680" y="610" width="79.75" height="40" as="geometry"/>
                </mxCell>
                <mxCell id="210" value="" style="group" vertex="1" connectable="0" parent="1">
                    <mxGeometry x="659.62" y="551.5" width="40" height="40" as="geometry"/>
                </mxCell>
                <mxCell id="211" value="" style="ellipse;whiteSpace=wrap;html=1;rounded=1;shadow=0;glass=0;sketch=0;strokeWidth=1;fontSize=16;fillColor=none;gradientColor=default;" vertex="1" parent="210">
                    <mxGeometry width="40" height="8" as="geometry"/>
                </mxCell>
                <mxCell id="212" value="" style="ellipse;whiteSpace=wrap;html=1;rounded=1;shadow=0;glass=0;sketch=0;strokeWidth=1;fontSize=16;fillColor=none;gradientColor=default;" vertex="1" parent="210">
                    <mxGeometry y="32" width="40" height="8" as="geometry"/>
                </mxCell>
                <mxCell id="213" value="" style="edgeStyle=none;orthogonalLoop=1;jettySize=auto;html=1;fontSize=16;exitX=0;exitY=0.5;exitDx=0;exitDy=0;entryX=0;entryY=0.5;entryDx=0;entryDy=0;shape=link;strokeColor=none;" edge="1" parent="210" source="211" target="212">
                    <mxGeometry width="100" relative="1" as="geometry">
                        <mxPoint y="72" as="sourcePoint"/>
                        <mxPoint x="100" y="72" as="targetPoint"/>
                        <Array as="points"/>
                    </mxGeometry>
                </mxCell>
                <mxCell id="214" value="" style="endArrow=none;html=1;strokeColor=default;fontSize=16;entryX=0;entryY=0.5;entryDx=0;entryDy=0;exitX=0;exitY=0.5;exitDx=0;exitDy=0;" edge="1" parent="210" source="212" target="211">
                    <mxGeometry width="50" height="50" relative="1" as="geometry">
                        <mxPoint x="-140" y="96" as="sourcePoint"/>
                        <mxPoint x="-90" y="56" as="targetPoint"/>
                    </mxGeometry>
                </mxCell>
                <mxCell id="215" value="" style="endArrow=none;html=1;strokeColor=default;fontSize=16;entryX=1;entryY=0.5;entryDx=0;entryDy=0;exitX=1;exitY=0.5;exitDx=0;exitDy=0;" edge="1" parent="210" source="212" target="211">
                    <mxGeometry width="50" height="50" relative="1" as="geometry">
                        <mxPoint x="59.99999999999682" y="40.00000000000009" as="sourcePoint"/>
                        <mxPoint x="59.99999999999682" y="8" as="targetPoint"/>
                    </mxGeometry>
                </mxCell>
                <mxCell id="216" value="" style="edgeStyle=none;orthogonalLoop=1;jettySize=auto;html=1;rounded=0;dashed=1;fontSize=12;endArrow=classic;endFill=1;entryX=0;entryY=0.25;entryDx=0;entryDy=0;exitX=0;exitY=1;exitDx=0;exitDy=0;" edge="1" parent="1" source="212" target="209">
                    <mxGeometry width="100" relative="1" as="geometry">
                        <mxPoint x="579.75" y="601.5" as="sourcePoint"/>
                        <mxPoint x="679.75" y="601.5" as="targetPoint"/>
                        <Array as="points">
                            <mxPoint x="665.75" y="621.5"/>
                        </Array>
                    </mxGeometry>
                </mxCell>
                <mxCell id="227" style="edgeStyle=none;rounded=0;html=1;fontSize=12;endArrow=classic;endFill=1;" edge="1" parent="1" target="217">
                    <mxGeometry relative="1" as="geometry">
                        <mxPoint x="599.7499999999999" y="750" as="sourcePoint"/>
                    </mxGeometry>
                </mxCell>
                <mxCell id="236" style="edgeStyle=none;rounded=0;html=1;fontSize=12;endArrow=classic;endFill=1;" edge="1" parent="1" source="217">
                    <mxGeometry relative="1" as="geometry">
                        <mxPoint x="770" y="840" as="targetPoint"/>
                        <Array as="points">
                            <mxPoint x="770" y="750"/>
                        </Array>
                    </mxGeometry>
                </mxCell>
                <mxCell id="217" value="GAMMA-S.py" style="rounded=1;whiteSpace=wrap;html=1;shadow=0;glass=0;sketch=0;strokeWidth=1;fontSize=12;fillColor=none;gradientColor=default;" vertex="1" parent="1">
                    <mxGeometry x="680" y="730" width="79.75" height="40" as="geometry"/>
                </mxCell>
                <mxCell id="218" value="" style="group" vertex="1" connectable="0" parent="1">
                    <mxGeometry x="659.62" y="671.5" width="40" height="40" as="geometry"/>
                </mxCell>
                <mxCell id="219" value="" style="ellipse;whiteSpace=wrap;html=1;rounded=1;shadow=0;glass=0;sketch=0;strokeWidth=1;fontSize=16;fillColor=none;gradientColor=default;" vertex="1" parent="218">
                    <mxGeometry width="40" height="8" as="geometry"/>
                </mxCell>
                <mxCell id="220" value="" style="ellipse;whiteSpace=wrap;html=1;rounded=1;shadow=0;glass=0;sketch=0;strokeWidth=1;fontSize=16;fillColor=none;gradientColor=default;" vertex="1" parent="218">
                    <mxGeometry y="32" width="40" height="8" as="geometry"/>
                </mxCell>
                <mxCell id="221" value="" style="edgeStyle=none;orthogonalLoop=1;jettySize=auto;html=1;fontSize=16;exitX=0;exitY=0.5;exitDx=0;exitDy=0;entryX=0;entryY=0.5;entryDx=0;entryDy=0;shape=link;strokeColor=none;" edge="1" parent="218" source="219" target="220">
                    <mxGeometry width="100" relative="1" as="geometry">
                        <mxPoint y="72" as="sourcePoint"/>
                        <mxPoint x="100" y="72" as="targetPoint"/>
                        <Array as="points"/>
                    </mxGeometry>
                </mxCell>
                <mxCell id="222" value="" style="endArrow=none;html=1;strokeColor=default;fontSize=16;entryX=0;entryY=0.5;entryDx=0;entryDy=0;exitX=0;exitY=0.5;exitDx=0;exitDy=0;" edge="1" parent="218" source="220" target="219">
                    <mxGeometry width="50" height="50" relative="1" as="geometry">
                        <mxPoint x="-140" y="96" as="sourcePoint"/>
                        <mxPoint x="-90" y="56" as="targetPoint"/>
                    </mxGeometry>
                </mxCell>
                <mxCell id="223" value="" style="endArrow=none;html=1;strokeColor=default;fontSize=16;entryX=1;entryY=0.5;entryDx=0;entryDy=0;exitX=1;exitY=0.5;exitDx=0;exitDy=0;" edge="1" parent="218" source="220" target="219">
                    <mxGeometry width="50" height="50" relative="1" as="geometry">
                        <mxPoint x="59.99999999999682" y="40.00000000000009" as="sourcePoint"/>
                        <mxPoint x="59.99999999999682" y="8" as="targetPoint"/>
                    </mxGeometry>
                </mxCell>
                <mxCell id="224" value="" style="edgeStyle=none;orthogonalLoop=1;jettySize=auto;html=1;rounded=0;dashed=1;fontSize=12;endArrow=classic;endFill=1;entryX=0;entryY=0.25;entryDx=0;entryDy=0;exitX=0;exitY=1;exitDx=0;exitDy=0;" edge="1" parent="1" source="220" target="217">
                    <mxGeometry width="100" relative="1" as="geometry">
                        <mxPoint x="579.75" y="721.5" as="sourcePoint"/>
                        <mxPoint x="679.75" y="721.5" as="targetPoint"/>
                        <Array as="points">
                            <mxPoint x="665.75" y="741.5"/>
                        </Array>
                    </mxGeometry>
                </mxCell>
                <mxCell id="233" value="Gamma Files" style="text;html=1;align=center;verticalAlign=middle;resizable=0;points=[];autosize=1;strokeColor=none;fillColor=none;fontSize=8;rounded=1;shadow=0;glass=0;sketch=0;strokeWidth=2;" vertex="1" parent="1">
                    <mxGeometry x="704.62" y="780" width="70" height="20" as="geometry"/>
                </mxCell>
            </root>
        </mxGraphModel>
    </diagram>
</mxfile>